<svg width="16" height="17" viewBox="0 0 16 17" fill="none" xmlns="http://www.w3.org/2000/svg">
<path d="M2.81498 15.1666C2.40757 15.1666 2.05868 15.0216 1.76831 14.7318C1.47843 14.4414 1.3335 14.0925 1.3335 13.6851V3.31473C1.3335 2.90733 1.47843 2.55844 1.76831 2.26807C2.05868 1.97819 2.40757 1.83325 2.81498 1.83325H13.1853C13.5928 1.83325 13.9416 1.97819 14.232 2.26807C14.5219 2.55844 14.6668 2.90733 14.6668 3.31473V13.6851C14.6668 14.0925 14.5219 14.4414 14.232 14.7318C13.9416 15.0216 13.5928 15.1666 13.1853 15.1666H2.81498ZM6.96313 11.2962C7.06189 11.2962 7.15448 11.2809 7.2409 11.2503C7.32732 11.2192 7.40757 11.1666 7.48164 11.0925L11.6853 6.88881C11.8212 6.753 11.8891 6.58634 11.8891 6.38881C11.8891 6.19128 11.815 6.01844 11.6668 5.87029C11.531 5.73449 11.3582 5.66659 11.1483 5.66659C10.9384 5.66659 10.7656 5.73449 10.6298 5.87029L6.96313 9.53696L5.35201 7.92584C5.21621 7.79004 5.04955 7.72214 4.85201 7.72214C4.65448 7.72214 4.48164 7.79621 4.3335 7.94436C4.19769 8.08017 4.12979 8.253 4.12979 8.46288C4.12979 8.67276 4.19769 8.8456 4.3335 8.9814L6.44461 11.0925C6.51868 11.1666 6.59893 11.2192 6.68535 11.2503C6.77177 11.2809 6.86436 11.2962 6.96313 11.2962Z" fill="#DF7D3A"/>
</svg>
