<svg width="66" height="61" viewBox="0 0 66 61" fill="none" xmlns="http://www.w3.org/2000/svg">
<mask id="path-1-inside-1_3_4400" fill="white">
<path d="M0 0H61C63.7614 0 66 2.23858 66 5V56C66 58.7614 63.7614 61 61 61H0V0Z"/>
</mask>
<path d="M0 0H61C63.7614 0 66 2.23858 66 5V56C66 58.7614 63.7614 61 61 61H0V0Z" fill="#41B64D"/>
<path d="M0 0H66H0ZM66 61H0H66ZM-1 61V0H1V61H-1ZM66 0V61V0Z" fill="white" mask="url(#path-1-inside-1_3_4400)"/>
<g clip-path="url(#clip0_3_4400)">
<path d="M40.3125 33.1042H38.2292C37.6539 33.1042 37.1875 33.5706 37.1875 34.1459V41.4375C37.1875 42.0128 37.6539 42.4792 38.2292 42.4792H40.3125C40.8878 42.4792 41.3542 42.0128 41.3542 41.4375V34.1459C41.3542 33.5706 40.8878 33.1042 40.3125 33.1042Z" fill="white"/>
<path d="M43.4375 34.6667H42.3959V40.9167H43.4375C43.7138 40.9167 43.9788 40.8069 44.1741 40.6116C44.3695 40.4162 44.4792 40.1513 44.4792 39.875V35.7084C44.4792 35.4321 44.3695 35.1671 44.1741 34.9718C43.9788 34.7764 43.7138 34.6667 43.4375 34.6667Z" fill="white"/>
<path d="M26.7709 33.1042H24.6875C24.1122 33.1042 23.6459 33.5706 23.6459 34.1459V41.4375C23.6459 42.0128 24.1122 42.4792 24.6875 42.4792H26.7709C27.3462 42.4792 27.8125 42.0128 27.8125 41.4375V34.1459C27.8125 33.5706 27.3462 33.1042 26.7709 33.1042Z" fill="white"/>
<path d="M20.5209 35.7083V39.875C20.5209 40.1513 20.6306 40.4162 20.826 40.6116C21.0213 40.8069 21.2863 40.9167 21.5625 40.9167H22.6042V34.6666H21.5625C21.2863 34.6666 21.0213 34.7764 20.826 34.9717C20.6306 35.1671 20.5209 35.432 20.5209 35.7083ZM39.4636 28.3385C39.604 28.7917 39.8479 29.2059 40.176 29.5485C40.5042 29.8912 40.9075 30.1527 41.3542 30.3125C41.3542 27.9642 40.4214 25.7121 38.7609 24.0516C37.1004 22.3912 34.8483 21.4583 32.5 21.4583C30.1518 21.4583 27.8997 22.3912 26.2392 24.0516C24.5787 25.7121 23.6459 27.9642 23.6459 30.3125C24.0916 30.152 24.4939 29.8902 24.8211 29.5476C25.1483 29.205 25.3914 28.7911 25.5313 28.3385C27.6563 21.5052 37.3646 21.5312 39.4636 28.3385Z" fill="white"/>
<path d="M40.9688 22.0313C33.474 14.5365 20.5209 19.8282 20.5209 30.5V33.9063C21.1407 33.5521 21.599 33.625 22.6042 33.625C22.6042 30.3229 22.1667 26.8542 25.5052 23.5052C31.6719 17.3229 42.3959 21.6459 42.3959 30.5V33.625C43.4063 33.625 43.8698 33.5573 44.4792 33.9063C44.4792 30.2709 45 26.0365 40.9688 22.0313Z" fill="white"/>
</g>
<defs>
<clipPath id="clip0_3_4400">
<rect width="25" height="25" fill="white" transform="translate(20 18)"/>
</clipPath>
</defs>
</svg>
