<svg width="40" height="38" viewBox="0 0 40 38" fill="none" xmlns="http://www.w3.org/2000/svg">
<mask id="path-1-inside-1_3_2832" fill="white">
<path d="M0 0H35C37.7614 0 40 2.23858 40 5V32.8939C40 35.6554 37.7614 37.8939 35 37.8939H0V0Z"/>
</mask>
<path d="M0 0H35C37.7614 0 40 2.23858 40 5V32.8939C40 35.6554 37.7614 37.8939 35 37.8939H0V0Z" fill="white"/>
<path d="M0 0H40H0ZM40 37.8939H0H40ZM-1 37.8939V0H1V37.8939H-1ZM40 0V37.8939V0Z" fill="#F76B56" mask="url(#path-1-inside-1_3_2832)"/>
<g clip-path="url(#clip0_3_2832)">
<path d="M24.4281 20.5652H23.1655C22.8168 20.5652 22.5342 20.855 22.5342 21.2123V25.742C22.5342 26.0994 22.8168 26.3891 23.1655 26.3891H24.4281C24.7768 26.3891 25.0594 26.0994 25.0594 25.742V21.2123C25.0594 20.855 24.7768 20.5652 24.4281 20.5652Z" fill="#F76B56"/>
<path d="M26.3222 21.5359H25.6909V25.4185H26.3222C26.4897 25.4185 26.6502 25.3503 26.7686 25.2289C26.887 25.1076 26.9535 24.943 26.9535 24.7714V22.183C26.9535 22.0114 26.887 21.8468 26.7686 21.7254C26.6502 21.6041 26.4897 21.5359 26.3222 21.5359Z" fill="#F76B56"/>
<path d="M16.2211 20.5652H14.9585C14.6098 20.5652 14.3271 20.855 14.3271 21.2123V25.742C14.3271 26.0994 14.6098 26.3891 14.9585 26.3891H16.2211C16.5698 26.3891 16.8524 26.0994 16.8524 25.742V21.2123C16.8524 20.855 16.5698 20.5652 16.2211 20.5652Z" fill="#F76B56"/>
<path d="M12.4331 22.183V24.7714C12.4331 24.943 12.4996 25.1076 12.618 25.229C12.7364 25.3503 12.897 25.4185 13.0644 25.4185H13.6957V21.5359H13.0644C12.897 21.5359 12.7364 21.6041 12.618 21.7255C12.4996 21.8468 12.4331 22.0114 12.4331 22.183ZM23.9135 17.6048C23.9986 17.8863 24.1464 18.1437 24.3453 18.3565C24.5442 18.5693 24.7887 18.7318 25.0594 18.8311C25.0594 17.3723 24.494 15.9733 23.4877 14.9418C22.4813 13.9102 21.1164 13.3307 19.6932 13.3307C18.27 13.3307 16.9051 13.9102 15.8988 14.9418C14.8924 15.9733 14.327 17.3723 14.327 18.8311C14.5972 18.7314 14.841 18.5687 15.0393 18.3559C15.2376 18.1431 15.385 17.886 15.4697 17.6048C16.7576 13.3599 22.6414 13.376 23.9135 17.6048Z" fill="#F76B56"/>
<path d="M24.8258 13.6866C20.2835 9.03079 12.4331 12.318 12.4331 18.9475V21.0635C12.8087 20.8435 13.0865 20.8888 13.6957 20.8888C13.6957 18.8375 13.4306 16.6827 15.4539 14.6023C19.1913 10.7618 25.6907 13.4472 25.6907 18.9475V20.8888C26.303 20.8888 26.584 20.8468 26.9533 21.0635C26.9533 18.8052 27.2689 16.1747 24.8258 13.6866Z" fill="#F76B56"/>
</g>
<defs>
<clipPath id="clip0_3_2832">
<path d="M12.1177 16.1824C12.1177 13.4209 14.3563 11.1824 17.1177 11.1824H27.2692V26.7127H17.1177C14.3563 26.7127 12.1177 24.4741 12.1177 21.7127V16.1824Z" fill="white"/>
</clipPath>
</defs>
</svg>
