<svg width="30" height="30" viewBox="0 0 30 30" fill="none" xmlns="http://www.w3.org/2000/svg">
<path d="M14.645 23.9107L14.6384 23.9072L14.6158 23.8949C14.5965 23.8844 14.5689 23.8693 14.5336 23.8496C14.4629 23.8101 14.3612 23.7524 14.233 23.6769C13.9765 23.5261 13.6132 23.3039 13.1785 23.015C12.3107 22.4381 11.1512 21.5901 9.9886 20.5063C7.68781 18.3615 5.25 15.1751 5.25 11.25C5.25 8.32194 7.7136 6 10.6875 6C12.4364 6 14.0023 6.79909 15 8.0516C15.9977 6.79909 17.5636 6 19.3125 6C22.2864 6 24.75 8.32194 24.75 11.25C24.75 15.1751 22.3122 18.3615 20.0114 20.5063C18.8488 21.5901 17.6893 22.4381 16.8215 23.015C16.3868 23.3039 16.0235 23.5261 15.767 23.6769C15.6388 23.7524 15.5371 23.8101 15.4664 23.8496C15.4311 23.8693 15.4035 23.8844 15.3842 23.8949L15.3616 23.9072L15.355 23.9107L15.3523 23.9121C15.1323 24.0289 14.8677 24.0289 14.6477 23.9121L14.645 23.9107Z" fill="#F34040"/>
</svg>
