<svg width="33" height="32" viewBox="0 0 33 32" fill="none" xmlns="http://www.w3.org/2000/svg">
<path d="M10.139 24.7157H16.805C16.861 24.7151 16.9165 24.7044 16.9687 24.6843C17.0209 24.6637 17.0689 24.6338 17.1105 24.5961L22.753 19.262C22.7972 19.2213 22.8327 19.1719 22.8569 19.1171C22.8792 19.0652 22.892 19.0097 22.8948 18.9533V14.1482C22.8948 13.8873 22.6832 13.6758 22.4224 13.6758C22.1616 13.6758 21.9501 13.8872 21.9501 14.1482V18.4461H19.0469C18.3269 18.4478 17.6371 18.7347 17.1283 19.2442C16.6195 19.7535 16.3334 20.4436 16.3326 21.1635V23.7707H10.139C9.66958 23.7707 9.21945 23.5844 8.88767 23.2524C8.55572 22.9207 8.3692 22.4705 8.3692 22.0011V11.9535C8.3692 11.4839 8.55554 11.0334 8.88733 10.7011C9.21911 10.3687 9.66924 10.1815 10.139 10.1807H17.9922C18.253 10.1807 18.4644 9.96927 18.4644 9.70845C18.4644 9.44748 18.253 9.23602 17.9922 9.23602H10.139C9.41907 9.23769 8.72907 9.52475 8.22043 10.0341C7.71162 10.5434 7.42537 11.2336 7.42456 11.9534V22.0011C7.42539 22.7207 7.71163 23.4107 8.2206 23.9195C8.72941 24.4283 9.41924 24.7145 10.139 24.7153L10.139 24.7157ZM19.0471 19.3911H21.2512L17.2775 23.1477V21.1638C17.2775 20.6943 17.4638 20.2438 17.7956 19.9115C18.1274 19.579 18.5775 19.3919 19.0471 19.3911Z" fill="black"/>
<path d="M21.7709 8.14682C21.6458 8.14765 21.5261 8.19735 21.4371 8.28528L14.2674 15.4551C14.2163 15.5078 14.1776 15.5713 14.154 15.6409L13.3069 18.2418C13.2537 18.4105 13.2986 18.595 13.4234 18.7204C13.5489 18.8454 13.7333 18.8902 13.9022 18.8369L16.5031 17.9867V17.9868C16.5725 17.9632 16.636 17.9245 16.6887 17.8735L23.8555 10.7037C24.0381 10.5185 24.0381 10.2213 23.8555 10.0361L22.1049 8.28525C22.0163 8.19666 21.8963 8.14696 21.7711 8.14679L21.7709 8.14682ZM16.1028 17.1238L14.497 17.6498L15.0229 16.0439L21.7705 9.28644L22.8536 10.3695L16.1028 17.1238Z" fill="black"/>
</svg>
