<svg width="33" height="32" viewBox="0 0 33 32" fill="none" xmlns="http://www.w3.org/2000/svg">
<path d="M10.8228 24.9568C10.7661 24.9668 10.7079 24.9668 10.651 24.9568C10.4753 24.8845 10.3604 24.7136 10.3596 24.5235V21.2215H8.46214C8.00837 21.2215 7.57337 21.0412 7.25235 20.7205C6.93156 20.3997 6.75146 19.9644 6.75146 19.5109V8.9401C6.75146 8.48633 6.93156 8.05133 7.25235 7.73052C7.57334 7.40952 8.00836 7.22943 8.46214 7.22943H20.6167C20.8518 7.25924 21.0281 7.45913 21.0281 7.69634C21.0281 7.93333 20.8518 8.13344 20.6167 8.16324H8.46214C8.04964 8.16324 7.71509 8.49758 7.71509 8.9103V19.5184C7.71509 19.7166 7.79388 19.9067 7.93396 20.0468C8.07403 20.1869 8.26392 20.2655 8.46214 20.2655H10.8227C11.0826 20.2655 11.2934 20.4762 11.2934 20.7361V23.2762L14.0352 20.4748C14.1213 20.3799 14.2432 20.3257 14.3712 20.3253H24.6506C24.8489 20.3253 25.0388 20.2467 25.1788 20.1064C25.3191 19.9664 25.3977 19.7765 25.3977 19.5783V12.8922C25.3808 12.7581 25.4223 12.6233 25.5115 12.522C25.6009 12.4205 25.7295 12.3625 25.8646 12.3625C25.9999 12.3625 26.1285 12.4205 26.2177 12.522C26.3071 12.6233 26.3486 12.7581 26.3315 12.8922V19.5185C26.3296 19.9658 26.1527 20.3946 25.8385 20.7131C25.5242 21.0314 25.0979 21.2142 24.6506 21.2219H14.5729L11.1664 24.7854C11.0799 24.8867 10.9558 24.9486 10.8226 24.9571L10.8228 24.9568Z" fill="black"/>
<path d="M18.0766 10.9869H9.26888C9.03355 10.9571 8.85742 10.757 8.85742 10.52C8.85742 10.283 9.03356 10.0829 9.26888 10.0531H18.0766C18.2106 10.0363 18.3455 10.0777 18.447 10.1669C18.5483 10.2564 18.6065 10.385 18.6065 10.52C18.6065 10.6553 18.5483 10.7839 18.447 10.8731C18.3455 10.9626 18.2106 11.004 18.0766 10.9869Z" fill="black"/>
<path d="M15.3051 13.8183H9.26888C9.03355 13.7885 8.85742 13.5884 8.85742 13.3514C8.85742 13.1142 9.03356 12.9143 9.26888 12.8845H15.3051H15.3048C15.4391 12.8674 15.5739 12.9088 15.6752 12.9983C15.7767 13.0875 15.8347 13.2161 15.8347 13.3514C15.8347 13.4864 15.7768 13.615 15.6752 13.7045C15.5739 13.7937 15.4391 13.8351 15.3048 13.8183H15.3051Z" fill="black"/>
<path d="M15.3051 16.6421H9.26888C9.03355 16.6123 8.85742 16.4122 8.85742 16.1752C8.85742 15.9382 9.03356 15.7381 9.26888 15.7083H15.3051H15.3048C15.4391 15.6914 15.5739 15.7327 15.6752 15.8221C15.7767 15.9115 15.8347 16.0401 15.8347 16.1752C15.8347 16.3103 15.7768 16.4389 15.6752 16.5283C15.5739 16.6177 15.4391 16.6592 15.3048 16.6421H15.3051Z" fill="black"/>
<path d="M17.24 16.6421C17.0818 16.6455 16.933 16.5677 16.8452 16.436C16.7573 16.3042 16.7429 16.1371 16.8067 15.9922L17.9571 13.1682H17.9573C17.984 13.1051 18.0248 13.0488 18.0767 13.004L23.9112 7.16953C24.094 6.9911 24.3858 6.9911 24.5686 7.16953L26.2943 8.91021C26.3852 8.99526 26.4367 9.11427 26.4363 9.23892C26.4342 9.36274 26.3831 9.48092 26.2943 9.56763L20.6092 15.2452C20.5678 15.2907 20.5167 15.3263 20.4598 15.3499L17.4193 16.6199C17.3614 16.6378 17.3007 16.6453 17.24 16.6422L17.24 16.6421ZM18.8238 13.6091L18.0767 15.3125L20.0117 14.4981L25.2859 9.26873L24.2249 8.17798L18.8238 13.6091Z" fill="black"/>
</svg>
