<svg width="20" height="20" viewBox="0 0 20 20" fill="none" xmlns="http://www.w3.org/2000/svg">
<g clip-path="url(#clip0_3_434)">
<path d="M14.1667 16.6667H2.08333C1.531 16.666 1.00148 16.4463 0.610925 16.0557C0.220367 15.6652 0.000661607 15.1357 0 14.5833L0 2.08333C0 0.935 0.935 0 2.08333 0H8.75C8.83686 4.95826e-06 8.92155 0.0271571 8.99223 0.0776595C9.0629 0.128162 9.11602 0.199489 9.14417 0.281667L14.5608 16.115C14.5819 16.1777 14.5878 16.2446 14.5781 16.31C14.5683 16.3755 14.5432 16.4377 14.5047 16.4915C14.4662 16.5454 14.4155 16.5893 14.3568 16.6198C14.298 16.6502 14.2328 16.6663 14.1667 16.6667ZM2.08333 0.833333C1.39417 0.833333 0.833333 1.39417 0.833333 2.08333V14.5833C0.833333 15.2725 1.39417 15.8333 2.08333 15.8333H13.5833L8.4525 0.833333H2.08333Z" fill="#F76B56"/>
<path d="M17.9168 19.9999H11.2502C11.1654 19.9999 11.0827 19.9741 11.013 19.9258C10.9433 19.8776 10.89 19.8092 10.8602 19.7299L9.61016 16.3966C9.57126 16.2931 9.57505 16.1785 9.62068 16.0779C9.66632 15.9772 9.75006 15.8988 9.8535 15.8599C9.95693 15.821 10.0716 15.8248 10.1722 15.8704C10.2729 15.9161 10.3513 15.9998 10.3902 16.1032L11.5393 19.1666H17.9168C18.606 19.1666 19.1668 18.6057 19.1668 17.9166V5.41658C19.1668 4.72742 18.606 4.16659 17.9168 4.16659H10.0002C9.88966 4.16659 9.78368 4.12269 9.70553 4.04455C9.62739 3.96641 9.5835 3.86043 9.5835 3.74992C9.5835 3.63941 9.62739 3.53343 9.70553 3.45529C9.78368 3.37715 9.88966 3.33325 10.0002 3.33325H17.9168C19.0652 3.33325 20.0002 4.26825 20.0002 5.41658V17.9166C20.0002 19.0649 19.0652 19.9999 17.9168 19.9999Z" fill="#F76B56"/>
<path d="M11.2502 19.9999C11.1701 20 11.0916 19.9769 11.0242 19.9335C10.9569 19.8901 10.9034 19.8282 10.8704 19.7552C10.8373 19.6822 10.826 19.6012 10.8378 19.5219C10.8496 19.4426 10.884 19.3685 10.9369 19.3082L13.8535 15.9749C13.8896 15.9337 13.9334 15.9 13.9825 15.8758C14.0316 15.8515 14.085 15.8371 14.1396 15.8335C14.1942 15.8298 14.249 15.837 14.3009 15.8546C14.3528 15.8721 14.4007 15.8997 14.4419 15.9358C14.4831 15.9718 14.5168 16.0156 14.541 16.0647C14.5653 16.1138 14.5797 16.1672 14.5833 16.2218C14.587 16.2764 14.5798 16.3313 14.5622 16.3831C14.5447 16.435 14.5171 16.4829 14.4811 16.5241L11.5644 19.8574C11.5252 19.9021 11.4768 19.938 11.4227 19.9626C11.3685 19.9871 11.3097 19.9999 11.2502 19.9999ZM7.91688 11.6666C7.83088 11.6667 7.74695 11.6402 7.67666 11.5906C7.60637 11.5411 7.55317 11.471 7.52438 11.3899L5.83355 6.65575L4.14272 11.3899C4.10559 11.494 4.02862 11.5791 3.92876 11.6265C3.8289 11.6738 3.71431 11.6795 3.61022 11.6424C3.50612 11.6053 3.42104 11.5283 3.37368 11.4285C3.32633 11.3286 3.32059 11.214 3.35772 11.1099L5.44105 5.27658C5.55938 4.94492 6.10772 4.94492 6.22522 5.27658L8.30855 11.1099C8.33096 11.1727 8.33796 11.24 8.32897 11.3061C8.31998 11.3722 8.29526 11.4351 8.25688 11.4897C8.2185 11.5442 8.16759 11.5888 8.10843 11.6195C8.04926 11.6503 7.98358 11.6665 7.91688 11.6666Z" fill="#F76B56"/>
<path d="M6.66683 9.16659H5.00016C4.88966 9.16659 4.78368 9.12269 4.70554 9.04455C4.62739 8.96641 4.5835 8.86043 4.5835 8.74992C4.5835 8.63941 4.62739 8.53343 4.70554 8.45529C4.78368 8.37715 4.88966 8.33325 5.00016 8.33325H6.66683C6.77734 8.33325 6.88332 8.37715 6.96146 8.45529C7.0396 8.53343 7.0835 8.63941 7.0835 8.74992C7.0835 8.86043 7.0396 8.96641 6.96146 9.04455C6.88332 9.12269 6.77734 9.16659 6.66683 9.16659ZM17.9168 9.16659H12.0835C11.973 9.16659 11.867 9.12269 11.7889 9.04455C11.7107 8.96641 11.6668 8.86043 11.6668 8.74992C11.6668 8.63941 11.7107 8.53343 11.7889 8.45529C11.867 8.37715 11.973 8.33325 12.0835 8.33325H17.9168C18.0273 8.33325 18.1333 8.37715 18.2115 8.45529C18.2896 8.53343 18.3335 8.63941 18.3335 8.74992C18.3335 8.86043 18.2896 8.96641 18.2115 9.04455C18.1333 9.12269 18.0273 9.16659 17.9168 9.16659Z" fill="#F76B56"/>
<path d="M14.5835 9.16667C14.473 9.16667 14.367 9.12277 14.2889 9.04463C14.2108 8.96649 14.1669 8.86051 14.1669 8.75V7.91667C14.1669 7.80616 14.2108 7.70018 14.2889 7.62204C14.367 7.5439 14.473 7.5 14.5835 7.5C14.694 7.5 14.8 7.5439 14.8781 7.62204C14.9563 7.70018 15.0002 7.80616 15.0002 7.91667V8.75C15.0002 8.86051 14.9563 8.96649 14.8781 9.04463C14.8 9.12277 14.694 9.16667 14.5835 9.16667ZM13.3335 14.1667C13.2447 14.1677 13.1579 14.1403 13.0859 14.0883C13.0138 14.0364 12.9603 13.9627 12.9333 13.8781C12.9062 13.7935 12.907 13.7024 12.9356 13.6183C12.9641 13.5342 13.0189 13.4615 13.0919 13.4108C14.916 12.115 16.2502 9.47167 16.2502 8.75083C16.2502 8.64033 16.2941 8.53435 16.3722 8.45621C16.4504 8.37807 16.5563 8.33417 16.6669 8.33417C16.7774 8.33417 16.8833 8.37807 16.9615 8.45621C17.0396 8.53435 17.0835 8.64033 17.0835 8.75083C17.0835 9.84917 15.4777 12.7383 13.5752 14.0908C13.5043 14.1402 13.4199 14.1667 13.3335 14.1667Z" fill="#F76B56"/>
<path d="M16.6666 14.9999C16.5625 15.0003 16.4622 14.9613 16.3857 14.8908C16.0832 14.6141 13.4207 12.1549 12.9474 10.9899C12.9102 10.8885 12.9138 10.7766 12.9575 10.6777C13.0012 10.5789 13.0817 10.501 13.1818 10.4603C13.2819 10.4196 13.3939 10.4195 13.4942 10.4598C13.5944 10.5002 13.675 10.5779 13.7191 10.6766C14.0599 11.5158 16.1657 13.5591 16.9482 14.2758C17.0103 14.3325 17.0537 14.4066 17.0728 14.4885C17.0919 14.5703 17.0859 14.656 17.0554 14.7343C17.0249 14.8126 16.9715 14.8799 16.9021 14.9273C16.8327 14.9747 16.7506 15 16.6666 14.9999Z" fill="#F76B56"/>
</g>
<defs>
<clipPath id="clip0_3_434">
<rect width="20" height="20" fill="white"/>
</clipPath>
</defs>
</svg>
